:SAMPLES-PER-SECOND 30
:FULLY-SPECIFIED
:DEGREES
216
root  -4.80987 40.8195 -0.0991707 179.123 -86.396 -179.557
RightUpLeg  7.75519 -1.96378 -2.14976
RightLeg  -2.93207 -16.1121 0.432196
RightFoot  -2.50597 -0.315102 3.85246
RightToes  -3.10096e-008 1.75238e-005 3.56266e-009
Spine  -11.8719 -1.06916 -4.54295
Spine1  12.9842 -2.3958 6.26241
HEad  -11.578 6.77488 10.383
LeftShoulder1  4.39186 -7.3729 -34.3711
LeftArm  -53.0913 22.0073 -47.989
LeftForeArm  86.1427 0.646593 12.0198
LeftHand  -0.695289 -8.67179 6.06195
RightShoulder  3.27735 5.71329 29.6424
RightArm  -7.9588 -29.0808 46.0827
RightForeArm  17.5811 42.0273 8.92988
RightHand  -0.5496 7.1461 -5.43392
LeftUpLeg  6.97843 1.58727 2.08373
LeftLeg  -2.29703 14.663 -0.7827
LeftFoot  -3.03034 0.2202 -2.77883
LeftToes  4.7633e-008 1.48299e-008 1.30754e-009
217
root  -4.91265 40.8149 -0.125251 179.624 -86.1426 179.873
RightUpLeg  7.68631 -1.9535 -2.13172
RightLeg  -2.37745 -15.954 0.189409
RightFoot  -2.74707 -0.312882 3.89684
RightToes  -3.10096e-008 1.75238e-005 3.56266e-009
Spine  -11.8717 -1.94603 -6.14911
Spine1  13.3973 -3.57253 7.81272
HEad  -12.7531 8.43386 8.93834
LeftShoulder1  3.99979 -6.67068 -33.3187
LeftArm  -47.4601 30.9754 -50.9431
LeftForeArm  85.0642 -5.48814 4.63436
LeftHand  -0.732187 -9.02232 6.33554
RightShoulder  3.21887 5.56737 29.5706
RightArm  -5.5883 -27.8493 45.4174
RightForeArm  19.4501 41.7657 8.72221
RightHand  -0.550007 7.04992 -5.47375
LeftUpLeg  7.26746 1.61994 2.07536
LeftLeg  -2.33724 14.8629 -0.821849
LeftFoot  -3.12572 0.219823 -2.80428
LeftToes  4.7633e-008 1.48299e-008 1.30754e-009
218
root  -5.01599 40.8055 -0.152303 -179.853 -85.7213 179.43
RightUpLeg  7.64341 -1.92567 -2.13429
RightLeg  -2.26075 -15.6251 0.0903535
RightFoot  -2.87595 -0.304455 3.84734
RightToes  -3.10096e-008 1.75238e-005 3.56266e-009
Spine  -13.0457 -1.57621 -6.41647
Spine1  14.7306 -3.23434 8.01586
HEad  -13.9354 7.49379 8.65856
LeftShoulder1  3.46311 -5.45613 -32.6448
LeftArm  -46.1134 35.8472 -52.5745
LeftForeArm  73.0472 -10.3449 0.175442
LeftHand  -0.926482 -6.94761 9.00805
RightShoulder  3.105 5.22249 29.6709
RightArm  -6.22249 -29.1186 45.225
RightForeArm  19.3931 43.8227 9.42992
RightHand  -0.597095 7.22987 -5.83522
LeftUpLeg  7.41578 1.56925 2.00552
LeftLeg  -2.36806 15.3335 -0.797123
LeftFoot  -3.28157 0.231728 -3.01175
LeftToes  4.7633e-008 1.48299e-008 1.30754e-009
219
root  -5.10378 40.7997 -0.184139 179.089 -85.5071 -179.481
RightUpLeg  7.84043 -1.89472 -2.05531
RightLeg  -2.43683 -15.323 0.16128
RightFoot  -2.94149 -0.304159 3.86755
RightToes  -3.10096e-008 1.75238e-005 3.56266e-009
Spine  -13.8164 -0.571991 -6.03195
Spine1  15.135 -2.15714 7.80355
HEad  -14.7912 5.21384 8.75695
LeftShoulder1  3.11504 -4.93405 -30.9102
LeftArm  -47.1301 38.5038 -55.0811
LeftForeArm  66.8553 -13.2145 -1.27909
LeftHand  -0.802744 -6.98995 7.87084
RightShoulder  3.00603 5.0104 29.3914
RightArm  -8.61826 -31.8664 45.8506
RightForeArm  17.3643 45.7902 10.2945
RightHand  -0.63114 7.41734 -6.06689
LeftUpLeg  7.60613 1.72976 2.17884
LeftLeg  -2.46865 15.3751 -0.895247
LeftFoot  -3.35778 0.226229 -2.9438
LeftToes  4.7633e-008 1.48299e-008 1.30754e-009
220
root  -5.18039 40.792 -0.211505 178.75 -85.8104 -179.101
RightUpLeg  8.19093 -1.98088 -2.03257
RightLeg  -2.93567 -15.6045 0.424704
RightFoot  -2.91664 -0.295695 3.75113
RightToes  -3.10096e-008 1.75238e-005 3.56266e-009
Spine  -14.2159 0.0858386 -5.64103
Spine1  14.9839 -1.34736 7.33513
HEad  -14.7298 3.8641 9.07835
LeftShoulder1  2.91876 -4.65752 -29.7414
LeftArm  -48.5628 38.7569 -55.8717
LeftForeArm  64.9005 -12.7454 -0.803084
LeftHand  -0.686409 -7.30097 6.62955
RightShoulder  2.95499 4.94681 29.0453
RightArm  -10.4281 -33.883 46.7659
RightForeArm  15.4558 46.3275 10.6456
RightHand  -0.6356 7.37309 -6.12399
LeftUpLeg  7.60627 1.78715 2.27593
LeftLeg  -2.36473 14.9876 -0.843769
LeftFoot  -3.49718 0.226343 -2.96116
LeftToes  4.7633e-008 1.48299e-008 1.30754e-009
